<svg id="svg" version="1.1" xmlns="http://www.w3.org/2000/svg" xmlns:xlink="http://www.w3.org/1999/xlink" width="400" height="400" viewBox="0, 0, 400,400"><g id="svgg"><path id="path0" d="M110.661 104.882 C 110.531 106.267,110.312 109.740,110.173 112.600 C 109.917 117.869,109.430 119.600,108.201 119.600 C 107.882 119.600,107.343 120.137,107.003 120.794 C 106.261 122.229,106.011 122.288,99.400 122.588 C 96.540 122.718,93.030 122.946,91.600 123.096 L 89.000 123.367 92.000 123.870 C 93.650 124.146,97.405 124.497,100.345 124.650 L 105.689 124.927 106.405 126.104 C 106.798 126.751,107.668 127.613,108.338 128.021 C 109.819 128.921,109.877 129.216,110.388 138.355 C 110.928 148.016,111.150 147.667,112.007 135.800 C 112.417 130.128,112.495 129.756,113.441 129.000 C 113.992 128.560,115.226 127.517,116.185 126.682 C 118.153 124.968,119.814 124.358,121.706 124.655 C 122.886 124.840,133.549 123.784,133.884 123.449 C 134.081 123.252,129.615 122.873,123.400 122.560 C 117.960 122.286,117.236 122.101,115.600 120.561 C 115.050 120.044,113.997 119.071,113.259 118.400 C 112.230 117.464,111.973 116.963,112.152 116.248 C 112.368 115.388,111.345 102.812,111.034 102.501 C 110.959 102.426,110.791 103.497,110.661 104.882 M154.064 113.419 C 153.436 114.798,153.407 159.463,154.033 162.380 C 154.533 164.712,154.521 164.705,156.017 163.447 C 156.719 162.856,158.094 162.328,159.638 162.056 C 161.007 161.815,162.984 161.169,164.032 160.622 C 165.079 160.074,167.166 159.434,168.668 159.200 C 172.120 158.661,173.883 158.095,175.400 157.037 C 177.128 155.832,177.187 155.686,177.196 152.600 C 177.227 142.264,177.885 141.949,199.315 142.006 C 206.968 142.026,216.566 141.828,220.643 141.565 C 227.228 141.141,228.489 141.164,231.928 141.767 C 235.482 142.390,235.924 142.393,237.316 141.811 C 238.150 141.462,240.738 140.908,243.068 140.581 C 245.398 140.254,248.586 139.547,250.152 139.010 C 251.718 138.473,254.980 137.752,257.400 137.408 C 259.820 137.064,263.302 136.326,265.137 135.767 C 266.972 135.208,270.932 134.395,273.937 133.959 C 276.942 133.523,280.388 132.800,281.596 132.353 C 282.804 131.905,286.358 131.201,289.495 130.788 C 292.631 130.374,296.592 129.596,298.298 129.058 C 300.004 128.521,302.660 127.961,304.200 127.814 C 313.331 126.945,316.767 126.153,317.800 124.679 C 318.608 123.525,318.643 114.153,317.843 113.100 C 317.340 112.437,312.967 112.400,235.920 112.400 L 154.528 112.400 154.064 113.419 M174.027 167.618 C 172.636 168.276,170.666 169.013,169.649 169.256 C 168.632 169.498,167.170 170.113,166.400 170.621 C 165.630 171.129,163.847 171.839,162.438 172.199 C 161.029 172.559,159.319 173.278,158.638 173.796 C 157.957 174.314,156.860 174.866,156.200 175.023 C 153.526 175.657,153.702 173.854,153.627 201.454 C 153.577 220.090,153.679 226.613,154.029 227.035 C 154.430 227.518,164.333 227.600,222.075 227.600 C 262.594 227.600,289.929 227.748,290.342 227.969 C 294.870 230.392,294.883 230.488,294.717 260.462 C 294.555 289.540,294.961 287.555,289.000 288.390 C 282.688 289.275,182.579 288.765,180.454 287.838 C 177.954 286.747,177.517 285.469,177.291 278.600 C 177.051 271.313,178.286 272.000,165.419 272.000 L 154.535 272.000 154.012 272.977 C 153.274 274.356,153.800 291.293,154.631 292.900 C 154.944 293.505,155.465 294.504,155.789 295.120 C 156.114 295.736,156.635 297.461,156.947 298.953 C 157.349 300.868,157.774 301.846,158.392 302.280 C 158.874 302.617,159.607 303.682,160.020 304.647 C 160.433 305.611,160.945 306.400,161.157 306.400 C 161.369 306.400,162.128 307.303,162.843 308.407 C 163.558 309.510,165.101 311.152,166.272 312.055 C 167.442 312.958,168.400 313.836,168.400 314.005 C 168.400 314.175,169.165 314.611,170.100 314.975 C 171.035 315.339,172.165 316.076,172.610 316.612 C 174.009 318.296,177.228 318.386,236.000 318.386 C 293.632 318.386,298.054 318.272,299.111 316.762 C 299.431 316.305,300.516 315.579,301.521 315.148 C 302.526 314.717,304.121 313.653,305.066 312.782 C 306.010 311.912,307.037 311.200,307.348 311.200 C 307.659 311.200,308.019 310.795,308.148 310.300 C 308.276 309.805,309.019 308.711,309.798 307.870 C 310.577 307.028,311.592 305.601,312.052 304.697 C 312.513 303.794,313.263 302.753,313.719 302.384 C 314.249 301.955,314.733 300.806,315.061 299.197 C 315.344 297.808,316.066 295.971,316.672 295.096 C 318.196 292.897,318.338 289.778,318.344 258.400 C 318.350 227.919,318.167 223.869,316.685 221.705 C 316.119 220.877,315.358 219.037,314.995 217.615 C 314.587 216.020,313.888 214.522,313.167 213.701 C 312.525 212.970,312.000 212.101,312.000 211.770 C 312.000 211.439,311.325 210.476,310.500 209.629 C 309.675 208.783,308.179 207.192,307.175 206.094 C 306.172 204.996,304.777 203.802,304.075 203.439 C 303.374 203.076,302.800 202.617,302.800 202.418 C 302.800 201.601,301.502 200.862,299.611 200.602 C 298.506 200.449,297.016 199.928,296.301 199.443 C 295.585 198.958,294.640 198.390,294.200 198.181 C 293.712 197.948,271.535 197.722,237.329 197.600 C 181.477 197.401,181.254 197.397,180.154 196.575 C 177.338 194.472,177.421 194.934,177.200 180.204 C 177.090 172.867,176.900 166.765,176.778 166.644 C 176.656 166.522,175.418 166.960,174.027 167.618 M121.029 191.395 C 120.164 191.703,119.292 192.250,119.089 192.612 C 118.887 192.973,117.591 193.776,116.208 194.396 C 114.825 195.017,113.563 195.736,113.403 195.995 C 113.243 196.254,112.298 196.815,111.304 197.241 C 110.310 197.667,108.984 198.447,108.358 198.974 C 107.732 199.500,106.542 200.155,105.712 200.429 C 104.883 200.703,103.441 201.663,102.509 202.563 L 100.813 204.200 100.807 260.820 C 100.802 304.332,100.911 317.551,101.280 317.920 C 102.212 318.852,123.477 318.577,123.986 317.626 C 124.266 317.102,124.400 296.747,124.400 254.600 C 124.400 184.656,124.690 190.091,121.029 191.395 " stroke="none" fill="#f8f8f9" fill-rule="evenodd"></path><path id="path1" d="M0.000 200.000 L 0.000 400.000 200.000 400.000 L 400.000 400.000 400.000 200.000 L 400.000 0.000 200.000 0.000 L 0.000 0.000 0.000 200.000 M112.777 87.666 C 113.019 88.798,113.389 92.170,113.598 95.162 C 113.807 98.153,114.152 101.230,114.364 102.000 C 114.576 102.770,114.957 105.830,115.211 108.800 C 115.809 115.799,116.652 117.086,118.608 113.987 C 119.312 112.872,119.996 112.301,120.827 112.135 C 121.488 112.002,122.281 111.534,122.589 111.095 C 122.949 110.581,123.391 110.388,123.825 110.554 C 124.781 110.921,124.280 113.752,122.986 115.290 C 122.444 115.934,122.000 116.637,122.000 116.851 C 122.000 117.065,121.346 117.840,120.547 118.572 C 118.391 120.547,118.751 120.655,128.487 120.969 C 139.156 121.313,141.945 121.610,143.387 122.555 L 144.476 123.268 143.583 124.218 C 142.588 125.277,142.081 125.378,133.600 126.198 C 130.410 126.506,126.820 127.037,125.623 127.377 C 123.995 127.839,123.086 127.895,122.023 127.600 C 120.155 127.081,120.126 127.085,119.892 127.900 C 119.781 128.285,119.566 128.903,119.412 129.274 C 119.205 129.777,119.550 130.211,120.767 130.979 C 122.459 132.047,122.904 133.336,121.920 134.320 C 120.930 135.310,118.400 134.352,118.400 132.987 C 118.400 132.105,117.319 131.508,116.508 131.942 C 115.872 132.283,115.693 133.202,115.274 138.302 C 115.004 141.581,114.610 144.867,114.399 145.603 C 114.188 146.339,113.835 149.482,113.614 152.588 C 112.844 163.428,111.000 167.139,109.605 160.656 C 109.128 158.442,108.445 145.333,108.382 137.200 C 108.332 130.736,108.089 130.041,106.665 132.297 C 106.082 133.221,105.018 134.274,104.302 134.637 C 103.586 135.000,102.725 135.536,102.390 135.829 C 101.484 136.619,98.572 137.003,98.189 136.382 C 98.003 136.080,98.151 135.679,98.560 135.380 C 98.935 135.105,99.425 134.220,99.648 133.411 C 99.929 132.393,100.476 131.692,101.427 131.131 C 103.872 129.689,102.650 127.600,99.361 127.600 C 98.448 127.600,97.003 127.354,96.150 127.054 C 95.298 126.754,92.980 126.384,91.000 126.232 C 82.124 125.550,78.800 124.787,78.800 123.433 C 78.800 121.906,87.660 120.822,100.276 120.806 C 105.159 120.799,105.837 120.508,104.005 119.203 C 103.342 118.732,102.800 118.082,102.800 117.759 C 102.800 117.437,102.170 116.543,101.400 115.773 C 99.830 114.204,99.844 114.239,100.414 113.174 C 101.002 112.075,102.018 112.214,103.536 113.600 C 104.258 114.260,105.016 114.800,105.220 114.800 C 105.423 114.800,106.049 115.527,106.609 116.415 C 108.174 118.894,108.253 118.457,108.549 105.716 C 108.852 92.632,109.335 86.873,110.282 85.041 L 110.903 83.840 111.619 84.725 C 112.013 85.211,112.534 86.535,112.777 87.666 M320.069 111.494 C 321.674 113.665,321.683 113.698,321.407 116.274 C 320.689 122.981,321.836 125.394,325.546 124.974 C 327.807 124.718,329.200 125.261,329.200 126.398 C 329.200 126.906,326.931 127.514,324.000 127.791 C 322.570 127.926,320.590 128.204,319.600 128.409 C 318.610 128.615,315.777 128.961,313.305 129.179 C 310.671 129.411,308.436 129.818,307.905 130.161 C 306.613 130.999,304.124 131.524,298.328 132.181 C 294.985 132.559,292.717 133.030,291.678 133.560 C 290.716 134.051,288.166 134.623,285.150 135.025 C 282.427 135.388,279.390 136.039,278.400 136.473 C 277.410 136.906,274.531 137.613,272.001 138.043 C 269.472 138.473,266.682 139.169,265.801 139.590 C 264.921 140.011,262.503 140.647,260.430 141.003 C 258.356 141.358,255.656 142.066,254.430 142.575 C 253.203 143.084,251.300 143.623,250.200 143.772 C 247.870 144.088,246.038 144.616,243.784 145.622 C 242.895 146.019,240.629 146.612,238.750 146.940 C 236.640 147.309,234.420 148.015,232.948 148.787 C 231.211 149.697,229.514 150.183,226.696 150.577 C 224.193 150.926,222.334 151.423,221.426 151.984 C 220.654 152.461,218.281 153.201,216.152 153.630 C 214.023 154.058,211.703 154.765,210.997 155.202 C 210.291 155.638,208.203 156.277,206.357 156.621 C 204.510 156.966,202.143 157.690,201.095 158.230 C 200.047 158.771,197.918 159.481,196.364 159.807 C 194.811 160.134,192.788 160.838,191.870 161.372 C 190.951 161.905,189.035 162.550,187.611 162.805 C 186.187 163.059,184.027 163.785,182.811 164.418 C 181.595 165.051,180.285 165.660,179.900 165.772 C 179.252 165.960,179.200 166.947,179.200 179.172 L 179.200 192.369 180.964 194.185 L 182.729 196.000 238.864 196.002 C 296.523 196.005,297.172 196.022,298.610 197.612 C 299.012 198.055,300.301 198.698,301.476 199.039 C 303.107 199.513,303.753 199.936,304.215 200.830 C 304.559 201.494,305.146 202.000,305.573 202.000 C 306.462 202.000,310.175 205.461,310.549 206.638 C 310.691 207.088,311.331 207.842,311.969 208.314 C 312.608 208.786,313.251 209.722,313.399 210.393 C 313.569 211.171,314.080 211.828,314.805 212.203 C 316.006 212.824,316.184 213.188,316.601 215.873 C 316.763 216.911,317.293 217.997,318.001 218.738 C 319.233 220.027,319.397 220.784,319.819 227.145 C 319.955 229.204,320.322 231.612,320.634 232.495 C 321.516 234.995,321.467 281.946,320.580 284.450 C 320.238 285.412,319.869 288.000,319.759 290.200 C 319.475 295.841,319.325 296.533,318.023 298.172 C 317.386 298.972,316.739 300.377,316.584 301.293 C 316.415 302.295,315.872 303.390,315.220 304.041 C 314.625 304.637,313.827 305.937,313.448 306.930 C 313.041 307.995,312.191 309.169,311.379 309.789 C 310.621 310.367,310.000 311.108,310.000 311.434 C 310.000 311.760,309.407 312.377,308.682 312.805 C 307.957 313.233,306.966 314.119,306.481 314.775 C 305.928 315.524,304.967 316.146,303.900 316.445 C 302.940 316.714,301.753 317.437,301.175 318.105 C 299.389 320.165,298.288 320.200,236.000 320.200 C 173.712 320.200,172.611 320.165,170.825 318.105 C 170.247 317.437,169.060 316.714,168.100 316.445 C 167.033 316.146,166.072 315.524,165.519 314.775 C 165.034 314.119,164.043 313.233,163.318 312.805 C 162.593 312.377,162.000 311.787,162.000 311.494 C 162.000 311.201,161.294 310.226,160.430 309.327 C 159.567 308.429,158.639 306.956,158.369 306.054 C 158.073 305.067,157.570 304.317,157.102 304.169 C 156.189 303.879,155.200 301.726,155.200 300.027 C 155.200 299.253,154.754 298.320,153.941 297.394 C 151.698 294.839,151.047 273.016,153.127 270.100 L 154.054 268.800 165.358 268.800 L 176.661 268.800 177.540 269.736 C 178.865 271.146,179.200 272.900,179.200 278.416 L 179.200 283.438 180.819 285.019 L 182.438 286.600 235.719 286.702 C 285.835 286.797,289.083 286.762,290.394 286.102 C 292.867 284.857,292.788 285.792,292.794 257.894 L 292.800 232.387 291.400 231.719 C 290.630 231.352,290.000 230.918,290.000 230.754 C 290.000 229.133,292.442 229.188,221.066 229.208 L 153.400 229.228 152.700 228.370 C 152.050 227.573,152.000 225.750,152.000 202.988 C 152.000 189.501,151.894 178.190,151.765 177.854 C 151.477 177.102,146.585 178.717,144.603 180.219 C 143.941 180.720,142.341 181.405,141.047 181.741 C 139.751 182.077,138.224 182.800,137.647 183.348 C 137.071 183.897,135.700 184.562,134.600 184.827 C 133.500 185.092,132.142 185.733,131.582 186.251 C 131.022 186.769,129.582 187.527,128.382 187.935 L 126.200 188.676 126.000 253.727 L 125.800 318.778 124.924 319.654 C 123.852 320.726,102.843 321.144,100.748 320.136 C 99.274 319.426,99.203 319.071,99.177 312.267 C 99.164 308.930,99.026 305.480,98.870 304.600 L 98.586 303.000 96.467 302.943 C 95.171 302.908,93.465 302.492,92.074 301.872 C 90.823 301.314,88.317 300.579,86.505 300.238 C 84.693 299.898,82.353 299.192,81.305 298.669 C 80.257 298.147,78.156 297.414,76.636 297.040 C 75.116 296.665,73.136 295.928,72.236 295.402 C 71.336 294.876,69.700 294.246,68.600 294.003 C 67.500 293.760,65.955 293.137,65.167 292.619 C 64.379 292.101,62.849 291.379,61.767 291.015 C 60.685 290.652,59.170 289.922,58.400 289.393 C 57.630 288.865,56.195 288.149,55.211 287.803 C 54.228 287.456,53.056 286.828,52.607 286.407 C 52.159 285.986,50.783 285.195,49.550 284.649 C 48.317 284.104,47.197 283.370,47.062 283.018 C 46.927 282.667,46.048 282.023,45.108 281.588 C 42.460 280.362,37.200 276.220,33.502 272.448 C 32.126 271.045,30.446 269.335,29.770 268.648 C 29.093 267.962,28.109 266.680,27.583 265.800 C 27.056 264.920,26.310 263.856,25.924 263.436 C 25.538 263.016,24.937 261.815,24.589 260.767 C 24.241 259.719,23.697 258.646,23.379 258.383 C 21.330 256.682,20.758 243.215,22.597 239.963 C 23.145 238.993,23.960 237.410,24.407 236.443 C 24.854 235.477,25.675 234.127,26.231 233.443 C 30.830 227.783,32.783 225.632,36.234 222.423 C 38.415 220.395,40.763 218.486,41.451 218.182 C 42.140 217.878,42.806 217.361,42.932 217.032 C 43.059 216.703,43.935 215.950,44.881 215.359 C 45.826 214.767,46.737 214.052,46.905 213.768 C 47.073 213.485,48.177 212.700,49.358 212.024 C 50.540 211.348,51.731 210.524,52.006 210.193 C 52.281 209.862,53.294 209.242,54.258 208.816 C 55.221 208.390,56.120 207.753,56.255 207.401 C 56.390 207.049,57.545 206.234,58.821 205.589 C 60.097 204.945,61.265 204.219,61.415 203.976 C 61.565 203.733,62.453 203.206,63.387 202.805 C 64.322 202.405,65.541 201.622,66.097 201.066 C 66.653 200.510,67.894 199.848,68.854 199.594 C 69.814 199.340,71.140 198.629,71.800 198.014 C 72.460 197.400,73.902 196.605,75.004 196.248 C 76.106 195.891,77.220 195.260,77.479 194.845 C 77.738 194.430,79.074 193.711,80.448 193.247 C 81.821 192.783,83.341 192.031,83.825 191.576 C 84.310 191.121,85.762 190.476,87.053 190.142 C 88.344 189.808,89.850 189.114,90.400 188.600 C 90.950 188.086,92.390 187.407,93.600 187.093 C 94.810 186.778,96.480 186.058,97.310 185.492 C 98.141 184.925,99.761 184.261,100.910 184.015 C 102.060 183.769,103.658 183.112,104.462 182.556 C 105.266 181.999,107.291 181.202,108.961 180.785 C 110.631 180.367,112.502 179.652,113.120 179.196 C 113.738 178.739,115.403 178.096,116.821 177.767 C 118.240 177.437,120.075 176.722,120.901 176.177 C 121.727 175.633,123.533 174.950,124.916 174.660 C 126.299 174.370,128.236 173.661,129.220 173.084 C 130.205 172.507,132.110 171.779,133.453 171.465 C 134.796 171.152,136.683 170.436,137.647 169.875 C 138.611 169.313,140.658 168.564,142.195 168.211 C 143.732 167.857,145.442 167.260,145.995 166.884 C 146.548 166.508,148.080 165.825,149.400 165.366 L 151.800 164.532 152.000 138.095 C 152.198 111.987,152.210 111.644,153.043 110.529 L 153.886 109.400 235.443 109.200 C 280.299 109.090,317.327 109.069,317.727 109.154 C 318.127 109.238,319.181 110.291,320.069 111.494 M344.879 123.154 C 346.578 123.787,341.741 124.434,336.209 124.313 C 330.704 124.192,329.246 123.618,332.476 122.843 C 334.386 122.384,343.423 122.611,344.879 123.154 M182.267 144.851 C 179.648 146.373,179.166 147.492,179.287 151.773 L 179.400 155.800 181.200 155.682 C 182.190 155.618,183.990 155.109,185.200 154.551 C 186.410 153.993,189.430 153.193,191.911 152.771 C 194.392 152.350,197.164 151.626,198.072 151.163 C 198.980 150.700,201.583 149.992,203.856 149.590 C 206.130 149.188,209.149 148.395,210.565 147.829 C 212.486 147.060,214.441 146.689,218.270 146.364 C 221.091 146.125,224.030 145.795,224.800 145.631 L 226.200 145.332 224.600 144.868 C 222.452 144.246,183.335 144.230,182.267 144.851 M97.602 205.196 C 97.368 205.634,96.604 206.288,95.904 206.650 C 94.506 207.372,94.404 207.464,87.193 214.509 C 84.439 217.199,81.843 219.940,81.425 220.600 C 81.006 221.260,80.340 222.031,79.945 222.314 C 79.549 222.596,78.863 223.646,78.421 224.647 C 77.978 225.647,77.162 227.005,76.608 227.664 C 76.053 228.323,75.495 229.343,75.367 229.931 C 75.004 231.602,74.308 233.308,73.545 234.400 C 71.473 237.362,71.518 249.542,73.614 253.108 C 74.036 253.827,74.670 255.404,75.021 256.612 C 75.372 257.821,76.097 259.329,76.631 259.964 C 77.165 260.599,77.920 261.812,78.307 262.659 C 78.695 263.507,79.592 264.830,80.302 265.600 C 81.011 266.370,82.269 267.761,83.096 268.690 C 84.659 270.447,84.895 270.682,87.949 273.519 C 88.967 274.464,90.340 275.750,91.000 276.376 C 91.660 277.002,92.650 277.742,93.200 278.019 C 93.750 278.297,95.129 279.314,96.265 280.281 C 97.811 281.596,98.414 281.907,98.665 281.519 C 99.061 280.906,99.364 211.529,98.989 207.300 C 98.726 204.339,98.359 203.782,97.602 205.196 " stroke="none" fill="#040404" fill-rule="evenodd"></path><path id="path2" d="M319.200 126.201 C 319.200 126.494,318.975 126.832,318.700 126.954 C 318.425 127.075,318.920 127.066,319.800 126.934 C 321.813 126.632,321.800 126.651,320.385 126.117 C 319.442 125.761,319.200 125.778,319.200 126.201 M303.600 129.424 C 301.510 129.966,298.990 130.582,298.000 130.793 L 296.200 131.178 298.200 130.990 C 303.119 130.526,306.286 129.889,307.214 129.175 C 308.467 128.212,308.207 128.230,303.600 129.424 M292.800 131.477 C 292.250 131.570,289.910 132.095,287.600 132.645 C 285.290 133.194,281.960 133.913,280.200 134.243 C 274.245 135.358,248.885 141.349,241.258 143.443 C 235.851 144.928,233.149 145.123,230.918 144.192 C 229.241 143.491,227.422 143.881,226.311 145.179 C 225.488 146.140,223.677 146.617,218.800 147.154 C 216.710 147.385,213.920 147.947,212.600 148.404 C 211.280 148.861,208.219 149.656,205.797 150.171 C 203.376 150.687,200.708 151.395,199.870 151.745 C 199.032 152.095,196.189 152.837,193.553 153.394 C 190.918 153.950,188.156 154.658,187.416 154.968 C 185.204 155.892,180.060 156.902,178.966 156.627 C 178.143 156.421,177.959 156.510,178.018 157.085 C 178.258 159.408,178.163 159.461,172.402 160.227 C 170.094 160.535,168.142 160.973,168.066 161.201 C 167.825 161.926,165.874 162.697,163.600 162.968 C 160.663 163.317,158.000 164.023,158.000 164.452 C 158.000 166.139,154.472 167.009,153.464 165.571 C 153.107 165.060,152.783 164.904,152.621 165.165 C 152.477 165.399,151.356 165.881,150.130 166.238 C 148.904 166.594,147.338 167.213,146.650 167.614 C 145.963 168.014,144.230 168.638,142.800 169.000 C 141.370 169.362,139.570 170.028,138.800 170.479 C 138.030 170.930,136.140 171.650,134.600 172.079 C 133.060 172.507,131.256 173.194,130.592 173.605 C 129.927 174.016,127.947 174.745,126.191 175.225 C 124.436 175.704,122.524 176.434,121.942 176.846 C 121.359 177.258,119.739 177.883,118.342 178.234 C 116.944 178.586,115.009 179.309,114.043 179.841 C 113.076 180.373,111.186 181.089,109.843 181.434 C 108.499 181.778,106.680 182.476,105.800 182.985 C 104.920 183.494,102.916 184.292,101.346 184.759 C 99.777 185.225,98.270 185.874,97.998 186.202 C 97.727 186.529,96.311 187.166,94.852 187.615 C 93.393 188.065,91.570 188.856,90.800 189.373 C 90.030 189.890,88.465 190.613,87.323 190.981 C 86.180 191.348,84.830 191.975,84.323 192.374 C 83.815 192.772,82.449 193.435,81.287 193.848 C 80.125 194.260,78.730 194.978,78.189 195.444 C 77.647 195.909,76.348 196.608,75.302 196.997 C 74.256 197.387,72.950 198.103,72.400 198.590 C 71.850 199.077,70.372 199.882,69.116 200.378 C 67.859 200.874,66.611 201.546,66.341 201.871 C 66.071 202.196,65.029 202.909,64.025 203.455 C 61.081 205.055,57.890 207.055,56.600 208.108 C 55.940 208.647,54.860 209.366,54.200 209.706 C 53.540 210.046,52.550 210.718,52.000 211.201 C 51.450 211.683,50.358 212.407,49.573 212.810 C 48.789 213.212,47.889 213.854,47.573 214.236 C 47.258 214.617,46.485 215.244,45.856 215.627 C 41.885 218.049,30.778 228.390,28.541 231.750 C 27.936 232.657,27.212 233.596,26.932 233.836 C 26.652 234.076,25.506 236.034,24.386 238.189 L 22.349 242.106 22.377 248.235 C 22.408 254.860,22.406 254.850,24.824 259.715 C 28.595 267.300,38.500 277.578,45.465 281.131 C 46.338 281.577,47.309 282.249,47.621 282.625 C 47.933 283.002,48.979 283.648,49.946 284.063 C 50.913 284.477,52.216 285.247,52.842 285.774 C 53.468 286.300,54.659 286.952,55.490 287.221 C 56.320 287.491,57.498 288.061,58.108 288.488 C 58.717 288.916,60.298 289.690,61.621 290.208 C 62.943 290.726,64.644 291.533,65.400 292.000 C 66.155 292.467,67.974 293.192,69.441 293.612 C 70.909 294.031,72.400 294.636,72.755 294.955 C 73.110 295.275,75.083 296.008,77.141 296.586 C 79.198 297.163,81.284 297.899,81.776 298.221 C 82.268 298.544,84.339 299.171,86.377 299.616 C 88.416 300.061,91.100 300.846,92.342 301.359 C 93.584 301.873,95.725 302.404,97.100 302.540 L 99.600 302.788 99.600 292.394 L 99.600 282.000 98.660 282.000 C 98.143 282.000,96.952 281.415,96.012 280.700 C 95.073 279.985,93.722 279.040,93.009 278.600 C 90.178 276.852,81.549 268.635,80.582 266.766 C 80.278 266.178,79.760 265.594,79.431 265.467 C 79.102 265.341,78.355 264.284,77.772 263.119 C 77.189 261.953,76.392 260.640,76.002 260.200 C 75.611 259.760,75.163 258.950,75.004 258.400 C 74.846 257.850,74.108 256.032,73.363 254.360 C 70.619 248.197,70.621 238.800,73.369 233.000 C 74.099 231.460,74.805 229.735,74.939 229.166 C 75.073 228.598,75.689 227.495,76.308 226.716 C 76.927 225.937,77.769 224.557,78.178 223.650 C 78.587 222.742,79.072 222.000,79.256 222.000 C 79.440 222.000,80.072 221.235,80.660 220.300 C 81.884 218.356,90.037 210.063,91.823 208.944 C 92.477 208.535,93.459 207.789,94.006 207.288 C 97.129 204.420,98.442 203.518,99.200 203.716 C 99.761 203.863,100.001 203.727,100.004 203.263 C 100.011 202.241,102.435 200.122,104.353 199.461 C 105.302 199.134,106.335 198.500,106.649 198.051 C 106.963 197.603,108.291 196.845,109.599 196.368 C 111.021 195.850,112.070 195.210,112.207 194.777 C 112.352 194.320,113.382 193.738,115.000 193.200 C 116.630 192.657,117.647 192.081,117.795 191.617 C 117.922 191.215,118.561 190.687,119.213 190.443 C 119.866 190.199,120.934 189.801,121.587 189.557 C 122.239 189.313,122.891 188.743,123.035 188.290 C 123.268 187.555,123.360 187.613,123.893 188.833 C 124.300 189.763,124.557 190.008,124.698 189.600 C 125.069 188.523,126.061 187.650,127.198 187.400 C 127.812 187.266,129.099 186.657,130.059 186.049 C 131.019 185.440,132.696 184.638,133.787 184.266 C 134.878 183.894,136.410 183.147,137.191 182.606 C 137.973 182.065,139.677 181.255,140.978 180.808 C 142.279 180.360,143.634 179.731,143.989 179.410 C 144.343 179.089,145.886 178.356,147.417 177.781 C 148.947 177.206,150.489 176.476,150.842 176.158 C 151.195 175.841,151.737 175.678,152.045 175.796 C 152.374 175.922,152.769 175.645,153.003 175.125 C 153.225 174.629,153.952 174.098,154.653 173.920 C 155.351 173.743,155.991 173.277,156.098 172.868 C 156.225 172.383,156.950 171.969,158.245 171.644 C 159.320 171.374,160.872 170.977,161.693 170.762 C 162.515 170.548,163.373 170.024,163.600 169.599 C 164.026 168.805,165.627 168.261,168.836 167.822 C 170.217 167.632,170.878 167.292,171.504 166.444 C 172.641 164.907,176.291 164.064,177.177 165.134 C 177.718 165.788,177.931 165.739,180.611 164.344 C 182.182 163.526,184.622 162.567,186.034 162.213 C 187.445 161.859,189.590 161.142,190.800 160.619 C 192.010 160.096,194.260 159.359,195.800 158.982 C 197.340 158.606,199.268 157.961,200.084 157.549 C 200.900 157.137,203.115 156.439,205.007 155.998 C 206.899 155.557,208.966 154.928,209.600 154.600 C 210.234 154.272,212.339 153.640,214.277 153.196 C 216.214 152.752,218.790 151.956,220.000 151.428 C 221.210 150.899,223.797 150.172,225.750 149.811 C 227.702 149.451,230.132 148.728,231.150 148.206 C 232.167 147.684,234.610 146.962,236.577 146.601 C 238.544 146.240,241.165 145.520,242.400 145.000 C 243.635 144.480,246.256 143.755,248.223 143.388 C 250.190 143.021,252.520 142.405,253.400 142.019 C 255.867 140.938,256.158 140.860,260.230 140.205 C 262.328 139.868,265.069 139.164,266.322 138.641 C 267.575 138.118,270.450 137.400,272.711 137.046 C 274.972 136.691,277.492 136.113,278.311 135.761 C 280.714 134.728,281.819 134.469,286.738 133.793 C 289.315 133.438,291.843 132.863,292.392 132.506 C 292.937 132.152,293.927 131.731,294.592 131.572 C 295.991 131.236,294.651 131.166,292.800 131.477 M226.967 147.843 C 228.197 148.315,227.573 148.745,225.300 148.993 C 219.201 149.657,217.937 149.951,217.041 150.918 C 216.340 151.675,215.434 151.985,212.775 152.378 C 208.127 153.066,206.484 153.520,206.087 154.230 C 205.869 154.620,204.486 155.041,202.224 155.407 C 197.872 156.112,197.206 156.310,196.200 157.200 C 195.760 157.589,194.140 158.115,192.600 158.370 C 188.871 158.985,187.439 159.473,186.586 160.415 C 185.983 161.081,185.356 161.198,182.438 161.187 L 179.000 161.175 180.131 160.331 C 180.753 159.867,181.415 159.085,181.602 158.594 C 181.882 157.859,182.358 157.652,184.271 157.436 C 187.908 157.026,190.476 156.383,192.000 155.502 C 192.793 155.043,195.393 154.356,198.000 153.916 C 201.297 153.360,203.002 152.866,204.021 152.171 C 205.104 151.432,206.574 151.040,210.197 150.524 C 213.826 150.008,215.144 149.656,215.760 149.040 C 216.913 147.887,224.868 147.037,226.967 147.843 M147.730 170.600 C 147.596 171.370,145.293 171.736,143.986 171.194 C 143.077 170.818,142.887 170.589,143.273 170.336 C 143.986 169.871,147.818 170.098,147.730 170.600 M139.000 173.830 C 138.059 174.542,135.144 174.449,134.898 173.700 C 134.778 173.334,135.415 173.203,137.267 173.213 C 139.615 173.225,139.742 173.270,139.000 173.830 M146.271 175.840 C 146.610 176.725,145.637 177.247,144.200 176.953 C 142.592 176.623,142.462 176.436,143.377 175.767 C 144.415 175.008,145.967 175.048,146.271 175.840 M130.624 177.013 C 129.580 177.802,126.560 177.793,126.255 177.000 C 126.064 176.503,126.485 176.402,128.713 176.413 C 131.163 176.424,131.331 176.477,130.624 177.013 M139.367 178.643 C 140.664 179.140,140.051 180.000,138.400 180.000 C 136.166 180.000,136.280 179.325,138.667 178.425 C 138.704 178.411,139.019 178.509,139.367 178.643 M121.512 180.222 C 120.564 180.737,120.258 180.739,119.112 180.239 L 117.800 179.665 120.200 179.649 C 122.537 179.632,122.571 179.648,121.512 180.222 M133.401 181.858 C 134.254 182.711,133.587 183.185,131.524 183.194 C 129.078 183.204,129.740 182.067,132.671 181.221 C 132.711 181.209,133.039 181.496,133.401 181.858 M114.336 183.003 C 114.411 183.078,113.691 183.302,112.736 183.502 C 110.877 183.892,109.439 183.405,110.481 182.739 C 110.941 182.445,113.985 182.654,114.336 183.003 M105.379 185.966 C 105.685 186.461,104.850 186.699,103.626 186.465 C 102.703 186.288,102.686 186.248,103.411 185.965 C 104.506 185.537,105.114 185.537,105.379 185.966 M97.371 189.189 C 96.774 189.786,95.110 189.861,94.911 189.300 C 94.789 188.957,95.208 188.800,96.247 188.800 C 97.226 188.800,97.623 188.937,97.371 189.189 M90.252 192.654 C 89.210 193.218,89.045 193.217,88.466 192.638 C 87.883 192.054,87.980 192.001,89.614 192.016 L 91.400 192.032 90.252 192.654 M83.800 195.600 C 83.664 195.820,83.203 196.000,82.776 196.000 C 82.349 196.000,82.000 195.820,82.000 195.600 C 82.000 195.380,82.461 195.200,83.024 195.200 C 83.604 195.200,83.940 195.373,83.800 195.600 M77.280 198.880 C 76.907 199.253,76.693 199.253,76.320 198.880 C 75.947 198.507,76.053 198.400,76.800 198.400 C 77.547 198.400,77.653 198.507,77.280 198.880 M55.600 211.200 C 54.824 211.701,54.400 211.701,54.400 211.200 C 54.400 210.980,54.805 210.803,55.300 210.806 C 56.028 210.811,56.085 210.886,55.600 211.200 " stroke="none" fill="#275cb5" fill-rule="evenodd"></path><path id="path3" d="M110.282 85.041 C 109.335 86.873,108.852 92.632,108.549 105.716 C 108.253 118.457,108.174 118.894,106.609 116.415 C 106.049 115.527,105.423 114.800,105.220 114.800 C 105.016 114.800,104.258 114.260,103.536 113.600 C 102.018 112.214,101.002 112.075,100.414 113.174 C 99.844 114.239,99.830 114.204,101.400 115.773 C 102.170 116.543,102.800 117.437,102.800 117.759 C 102.800 118.082,103.342 118.732,104.005 119.203 C 105.837 120.508,105.159 120.799,100.276 120.806 C 87.660 120.822,78.800 121.906,78.800 123.433 C 78.800 124.787,82.124 125.550,91.000 126.232 C 92.980 126.384,95.298 126.754,96.150 127.054 C 97.003 127.354,98.448 127.600,99.361 127.600 C 102.650 127.600,103.872 129.689,101.427 131.131 C 100.476 131.692,99.929 132.393,99.648 133.411 C 99.425 134.220,98.935 135.105,98.560 135.380 C 98.151 135.679,98.003 136.080,98.189 136.382 C 98.572 137.003,101.484 136.619,102.390 135.829 C 102.725 135.536,103.586 135.000,104.302 134.637 C 105.018 134.274,106.082 133.221,106.665 132.297 C 108.089 130.041,108.332 130.736,108.382 137.200 C 108.445 145.333,109.128 158.442,109.605 160.656 C 111.000 167.139,112.844 163.428,113.614 152.588 C 113.835 149.482,114.188 146.339,114.399 145.603 C 114.610 144.867,115.004 141.581,115.274 138.302 C 115.693 133.202,115.872 132.283,116.508 131.942 C 117.319 131.508,118.400 132.105,118.400 132.987 C 118.400 134.352,120.930 135.310,121.920 134.320 C 122.904 133.336,122.459 132.047,120.767 130.979 C 119.550 130.211,119.205 129.777,119.412 129.274 C 119.566 128.903,119.781 128.285,119.892 127.900 C 120.126 127.085,120.155 127.081,122.023 127.600 C 123.086 127.895,123.995 127.839,125.623 127.377 C 126.820 127.037,130.410 126.506,133.600 126.198 C 142.081 125.378,142.588 125.277,143.583 124.218 L 144.476 123.268 143.387 122.555 C 141.945 121.610,139.156 121.313,128.487 120.969 C 118.751 120.655,118.391 120.547,120.547 118.572 C 121.346 117.840,122.000 117.065,122.000 116.851 C 122.000 116.637,122.444 115.934,122.986 115.290 C 124.280 113.752,124.781 110.921,123.825 110.554 C 123.391 110.388,122.949 110.581,122.589 111.095 C 122.281 111.534,121.488 112.002,120.827 112.135 C 119.996 112.301,119.312 112.872,118.608 113.987 C 116.652 117.086,115.809 115.799,115.211 108.800 C 114.957 105.830,114.576 102.770,114.364 102.000 C 114.152 101.230,113.807 98.153,113.598 95.162 C 113.154 88.806,112.613 85.951,111.619 84.725 L 110.903 83.840 110.282 85.041 M112.377 106.800 C 112.598 108.890,112.784 112.183,112.790 114.119 L 112.800 117.637 114.059 118.319 C 114.751 118.693,115.696 119.422,116.159 119.938 C 117.645 121.595,118.784 121.880,125.000 122.147 C 132.783 122.482,138.293 123.207,136.592 123.673 C 134.507 124.244,125.932 125.200,122.892 125.200 C 119.447 125.200,117.865 125.866,117.272 127.564 C 116.949 128.493,116.543 128.812,115.418 129.023 C 113.427 129.397,113.190 130.059,112.724 136.538 C 112.500 139.652,112.009 144.540,111.632 147.400 L 110.947 152.600 110.640 149.610 C 110.472 147.966,110.109 142.897,109.834 138.345 L 109.333 130.069 106.899 127.635 L 104.464 125.200 100.917 125.200 C 97.319 125.200,89.193 124.311,87.000 123.678 C 85.818 123.337,85.827 123.327,87.652 123.048 C 90.764 122.573,98.414 122.013,101.900 122.007 C 104.808 122.001,105.297 121.893,106.020 121.100 C 106.982 120.045,107.211 119.817,108.491 118.657 C 109.421 117.813,109.468 117.485,109.952 108.592 C 110.228 103.536,110.565 98.410,110.703 97.200 L 110.953 95.000 111.464 99.000 C 111.745 101.200,112.156 104.710,112.377 106.800 M235.443 109.200 L 153.886 109.400 153.043 110.529 C 152.210 111.644,152.198 111.987,152.000 138.095 L 151.800 164.532 149.400 165.366 C 148.080 165.825,146.548 166.508,145.995 166.884 C 145.442 167.260,143.732 167.857,142.195 168.211 C 140.658 168.564,138.611 169.313,137.647 169.875 C 136.683 170.436,134.796 171.152,133.453 171.465 C 132.110 171.779,130.205 172.507,129.220 173.084 C 128.236 173.661,126.299 174.370,124.916 174.660 C 123.533 174.950,121.727 175.633,120.901 176.177 C 120.075 176.722,118.240 177.437,116.821 177.767 C 115.403 178.096,113.738 178.739,113.120 179.196 C 112.502 179.652,110.631 180.367,108.961 180.785 C 107.291 181.202,105.266 181.999,104.462 182.556 C 103.658 183.112,102.060 183.769,100.910 184.015 C 99.761 184.261,98.141 184.925,97.310 185.492 C 96.480 186.058,94.810 186.778,93.600 187.093 C 92.390 187.407,90.950 188.086,90.400 188.600 C 89.850 189.114,88.344 189.808,87.053 190.142 C 85.762 190.476,84.310 191.121,83.825 191.576 C 83.341 192.031,81.821 192.783,80.448 193.247 C 79.074 193.711,77.738 194.430,77.479 194.845 C 77.220 195.260,76.106 195.891,75.004 196.248 C 73.902 196.605,72.460 197.400,71.800 198.014 C 71.140 198.629,69.814 199.340,68.854 199.594 C 67.894 199.848,66.653 200.510,66.097 201.066 C 65.541 201.622,64.322 202.405,63.387 202.805 C 62.453 203.206,61.565 203.733,61.415 203.976 C 61.265 204.219,60.097 204.945,58.821 205.589 C 57.545 206.234,56.390 207.049,56.255 207.401 C 56.120 207.753,55.221 208.390,54.258 208.816 C 53.294 209.242,52.281 209.862,52.006 210.193 C 51.731 210.524,50.540 211.348,49.358 212.024 C 48.177 212.700,47.073 213.485,46.905 213.768 C 46.737 214.052,45.826 214.767,44.881 215.359 C 43.935 215.950,43.059 216.703,42.932 217.032 C 42.806 217.361,42.140 217.878,41.451 218.182 C 40.763 218.486,38.415 220.395,36.234 222.423 C 32.783 225.632,30.830 227.783,26.231 233.443 C 25.675 234.127,24.854 235.477,24.407 236.443 C 23.960 237.410,23.145 238.993,22.597 239.963 C 20.758 243.215,21.330 256.682,23.379 258.383 C 23.697 258.646,24.241 259.719,24.589 260.767 C 24.937 261.815,25.538 263.016,25.924 263.436 C 26.310 263.856,27.056 264.920,27.583 265.800 C 28.109 266.680,29.093 267.962,29.770 268.648 C 30.446 269.335,32.126 271.045,33.502 272.448 C 37.200 276.220,42.460 280.362,45.108 281.588 C 46.048 282.023,46.927 282.667,47.062 283.018 C 47.197 283.370,48.317 284.104,49.550 284.649 C 50.783 285.195,52.159 285.986,52.607 286.407 C 53.056 286.828,54.228 287.456,55.211 287.803 C 56.195 288.149,57.630 288.865,58.400 289.393 C 59.170 289.922,60.685 290.652,61.767 291.015 C 62.849 291.379,64.379 292.101,65.167 292.619 C 65.955 293.137,67.500 293.760,68.600 294.003 C 69.700 294.246,71.336 294.876,72.236 295.402 C 73.136 295.928,75.116 296.665,76.636 297.040 C 78.156 297.414,80.257 298.147,81.305 298.669 C 82.353 299.192,84.693 299.896,86.505 300.235 C 88.317 300.575,90.790 301.307,92.000 301.863 C 94.007 302.786,97.327 303.207,97.920 302.614 C 98.037 302.496,97.378 302.400,96.455 302.400 C 95.531 302.400,93.720 301.956,92.430 301.413 C 91.140 300.870,88.416 300.061,86.377 299.616 C 84.339 299.171,82.268 298.544,81.776 298.221 C 81.284 297.899,79.198 297.163,77.141 296.586 C 75.083 296.008,73.110 295.275,72.755 294.955 C 72.400 294.636,70.909 294.031,69.441 293.612 C 67.974 293.192,66.155 292.467,65.400 292.000 C 64.644 291.533,62.943 290.726,61.621 290.208 C 60.298 289.690,58.717 288.916,58.108 288.488 C 57.498 288.061,56.320 287.491,55.490 287.221 C 54.659 286.952,53.468 286.300,52.842 285.774 C 52.216 285.247,50.913 284.477,49.946 284.063 C 48.979 283.648,47.933 283.002,47.621 282.625 C 47.309 282.249,46.338 281.577,45.465 281.131 C 38.500 277.578,28.595 267.300,24.824 259.715 C 22.406 254.850,22.408 254.860,22.377 248.235 L 22.349 242.106 24.386 238.189 C 25.506 236.034,26.652 234.076,26.932 233.836 C 27.212 233.596,27.936 232.657,28.541 231.750 C 30.778 228.390,41.885 218.049,45.856 215.627 C 46.485 215.244,47.258 214.617,47.573 214.236 C 47.889 213.854,48.789 213.212,49.573 212.810 C 50.358 212.407,51.450 211.683,52.000 211.201 C 52.550 210.718,53.540 210.046,54.200 209.706 C 54.860 209.366,55.940 208.647,56.600 208.108 C 57.890 207.055,61.081 205.055,64.025 203.455 C 65.029 202.909,66.071 202.196,66.341 201.871 C 66.611 201.546,67.859 200.874,69.116 200.378 C 70.372 199.882,71.850 199.077,72.400 198.590 C 72.950 198.103,74.256 197.387,75.302 196.997 C 76.348 196.608,77.647 195.909,78.189 195.444 C 78.730 194.978,80.125 194.260,81.287 193.848 C 82.449 193.435,83.815 192.772,84.323 192.374 C 84.830 191.975,86.180 191.348,87.323 190.981 C 88.465 190.613,90.030 189.890,90.800 189.373 C 91.570 188.856,93.393 188.065,94.852 187.615 C 96.311 187.166,97.727 186.529,97.998 186.202 C 98.270 185.874,99.777 185.225,101.346 184.759 C 102.916 184.292,104.920 183.494,105.800 182.985 C 106.680 182.476,108.499 181.778,109.843 181.434 C 111.186 181.089,113.076 180.373,114.043 179.841 C 115.009 179.309,116.944 178.586,118.342 178.234 C 119.739 177.883,121.359 177.258,121.942 176.846 C 122.524 176.434,124.436 175.704,126.191 175.225 C 127.947 174.745,129.927 174.016,130.592 173.605 C 131.256 173.194,133.060 172.507,134.600 172.079 C 136.140 171.650,138.030 170.930,138.800 170.479 C 139.570 170.028,141.370 169.362,142.800 169.000 C 144.230 168.638,145.982 168.002,146.694 167.588 C 147.406 167.173,148.756 166.632,149.694 166.384 C 150.632 166.137,151.805 165.675,152.300 165.358 L 153.200 164.782 153.200 139.371 C 153.200 117.376,153.282 113.802,153.810 112.780 L 154.421 111.600 235.983 111.600 L 317.546 111.600 318.387 112.782 C 319.090 113.769,319.210 114.444,319.117 116.882 C 318.848 123.949,319.075 125.586,320.404 126.145 L 321.609 126.651 319.104 127.137 C 317.727 127.404,314.742 127.795,312.471 128.005 C 309.464 128.283,308.043 128.600,307.240 129.171 C 306.443 129.739,304.432 130.193,299.969 130.813 C 295.934 131.374,293.384 131.925,292.597 132.408 C 291.866 132.856,289.566 133.398,286.735 133.790 C 281.817 134.470,280.711 134.729,278.311 135.761 C 277.492 136.113,274.972 136.691,272.711 137.046 C 270.450 137.400,267.575 138.118,266.322 138.641 C 265.069 139.164,262.328 139.868,260.230 140.205 C 256.158 140.860,255.867 140.938,253.400 142.019 C 252.520 142.405,250.190 143.021,248.223 143.388 C 246.256 143.755,243.635 144.480,242.400 145.000 C 241.165 145.520,238.544 146.240,236.577 146.601 C 234.610 146.962,232.167 147.684,231.150 148.206 C 230.132 148.728,227.702 149.451,225.750 149.811 C 223.797 150.172,221.210 150.899,220.000 151.428 C 218.790 151.956,216.214 152.752,214.277 153.196 C 212.339 153.640,210.234 154.272,209.600 154.600 C 208.966 154.928,206.899 155.557,205.007 155.998 C 203.115 156.439,200.900 157.134,200.084 157.542 C 199.268 157.949,197.105 158.671,195.278 159.145 C 193.451 159.618,191.291 160.339,190.478 160.747 C 189.665 161.154,187.740 161.797,186.200 162.176 C 184.660 162.555,182.140 163.525,180.600 164.332 L 177.800 165.800 177.827 178.800 C 177.859 194.283,177.796 193.927,180.961 196.404 C 181.625 196.923,188.988 197.026,238.196 197.200 L 294.669 197.400 296.234 198.476 C 297.095 199.067,298.700 199.765,299.800 200.025 C 300.931 200.293,302.321 200.983,303.000 201.614 C 308.399 206.635,312.019 210.472,312.545 211.730 C 312.885 212.545,313.443 213.318,313.784 213.449 C 314.128 213.581,314.785 214.957,315.260 216.543 C 315.732 218.115,316.431 219.850,316.814 220.400 C 320.094 225.113,320.296 291.091,317.045 296.004 C 316.462 296.885,315.778 298.550,315.526 299.703 C 315.257 300.937,314.620 302.294,313.979 303.000 C 313.380 303.660,312.575 304.830,312.190 305.600 C 311.156 307.671,309.421 309.707,305.543 313.400 C 304.961 313.954,303.611 314.787,302.543 315.250 C 301.474 315.714,300.123 316.539,299.539 317.084 C 297.724 318.779,295.474 318.835,233.600 318.714 C 172.332 318.595,172.873 318.610,172.237 316.952 C 172.112 316.626,171.152 315.984,170.105 315.525 C 169.057 315.066,167.439 313.996,166.509 313.146 C 165.579 312.296,164.638 311.600,164.419 311.600 C 164.200 311.600,163.749 311.074,163.416 310.431 C 163.084 309.788,162.089 308.427,161.206 307.407 C 160.323 306.386,159.600 305.286,159.600 304.962 C 159.600 304.638,158.988 303.761,158.240 303.013 C 157.289 302.062,156.798 301.133,156.610 299.926 C 156.462 298.977,155.689 296.854,154.891 295.208 L 153.440 292.216 153.271 282.983 C 153.123 274.902,153.186 273.588,153.774 272.450 L 154.446 271.151 165.409 271.275 C 178.869 271.428,177.665 270.737,177.843 278.412 C 177.990 284.709,178.424 286.083,180.620 287.200 C 182.791 288.304,290.761 288.084,292.249 286.973 C 294.140 285.561,294.162 285.241,294.181 258.400 C 294.202 230.035,294.406 232.055,291.262 229.444 L 289.524 228.000 222.024 228.000 C 157.139 228.000,154.498 227.972,153.862 227.269 C 153.261 226.605,153.200 224.307,153.200 202.519 C 153.200 174.886,153.130 174.101,150.842 176.158 C 150.489 176.476,148.947 177.206,147.417 177.781 C 145.886 178.356,144.343 179.089,143.989 179.410 C 143.634 179.731,142.279 180.360,140.978 180.808 C 139.677 181.255,137.973 182.065,137.191 182.606 C 136.410 183.147,134.878 183.894,133.787 184.266 C 132.696 184.638,131.019 185.440,130.059 186.049 C 129.099 186.657,127.812 187.266,127.198 187.400 C 124.584 187.975,124.785 182.470,124.796 253.204 C 124.806 312.458,124.756 317.385,124.142 318.065 C 123.087 319.230,101.439 319.194,100.814 318.026 C 100.580 317.588,100.400 314.561,100.400 311.052 C 100.400 304.788,100.078 302.800,99.064 302.800 C 98.624 302.800,98.577 303.157,98.836 304.500 C 99.017 305.435,99.173 308.930,99.183 312.267 C 99.202 319.069,99.273 319.425,100.748 320.136 C 102.843 321.144,123.852 320.726,124.924 319.654 L 125.800 318.778 126.000 253.727 L 126.200 188.676 128.382 187.935 C 129.582 187.527,131.022 186.769,131.582 186.251 C 132.142 185.733,133.500 185.092,134.600 184.827 C 135.700 184.562,137.071 183.897,137.647 183.348 C 138.224 182.800,139.751 182.077,141.047 181.741 C 142.341 181.405,143.941 180.720,144.603 180.219 C 146.585 178.717,151.477 177.102,151.765 177.854 C 151.894 178.190,152.000 189.501,152.000 202.988 C 152.000 225.750,152.050 227.573,152.700 228.370 L 153.400 229.228 221.066 229.208 C 292.442 229.188,290.000 229.133,290.000 230.754 C 290.000 230.918,290.630 231.352,291.400 231.719 L 292.800 232.387 292.794 257.894 C 292.788 285.792,292.867 284.857,290.394 286.102 C 289.083 286.762,285.835 286.797,235.719 286.702 L 182.438 286.600 180.819 285.019 L 179.200 283.438 179.200 278.416 C 179.200 272.900,178.865 271.146,177.540 269.736 L 176.661 268.800 165.358 268.800 L 154.054 268.800 153.127 270.100 C 151.047 273.016,151.698 294.839,153.941 297.394 C 154.754 298.320,155.200 299.253,155.200 300.027 C 155.200 301.726,156.189 303.879,157.102 304.169 C 157.570 304.317,158.073 305.067,158.369 306.054 C 158.639 306.956,159.567 308.429,160.430 309.327 C 161.294 310.226,162.000 311.201,162.000 311.494 C 162.000 311.787,162.593 312.377,163.318 312.805 C 164.043 313.233,165.034 314.119,165.519 314.775 C 166.072 315.524,167.033 316.146,168.100 316.445 C 169.060 316.714,170.247 317.437,170.825 318.105 C 172.611 320.165,173.712 320.200,236.000 320.200 C 298.288 320.200,299.389 320.165,301.175 318.105 C 301.753 317.437,302.940 316.714,303.900 316.445 C 304.967 316.146,305.928 315.524,306.481 314.775 C 306.966 314.119,307.957 313.233,308.682 312.805 C 309.407 312.377,310.000 311.760,310.000 311.434 C 310.000 311.108,310.621 310.367,311.379 309.789 C 312.191 309.169,313.041 307.995,313.448 306.930 C 313.827 305.937,314.625 304.637,315.220 304.041 C 315.872 303.390,316.415 302.295,316.584 301.293 C 316.739 300.377,317.386 298.972,318.023 298.172 C 319.325 296.533,319.475 295.841,319.759 290.200 C 319.869 288.000,320.238 285.412,320.580 284.450 C 321.467 281.946,321.516 234.995,320.634 232.495 C 320.322 231.612,319.955 229.204,319.819 227.145 C 319.397 220.784,319.233 220.027,318.001 218.738 C 317.293 217.997,316.763 216.911,316.601 215.873 C 316.184 213.188,316.006 212.824,314.805 212.203 C 314.080 211.828,313.569 211.171,313.399 210.393 C 313.251 209.722,312.608 208.786,311.969 208.314 C 311.331 207.842,310.691 207.088,310.549 206.638 C 310.175 205.461,306.462 202.000,305.573 202.000 C 305.146 202.000,304.559 201.494,304.215 200.830 C 303.753 199.936,303.107 199.513,301.476 199.039 C 300.301 198.698,299.012 198.055,298.610 197.612 C 297.172 196.022,296.523 196.005,238.864 196.002 L 182.729 196.000 180.964 194.185 L 179.200 192.369 179.200 179.172 C 179.200 166.947,179.252 165.960,179.900 165.772 C 180.285 165.660,181.595 165.051,182.811 164.418 C 184.027 163.785,186.187 163.059,187.611 162.805 C 189.035 162.550,190.951 161.905,191.870 161.372 C 192.788 160.838,194.811 160.134,196.364 159.807 C 197.918 159.481,200.047 158.771,201.095 158.230 C 202.143 157.690,204.510 156.966,206.357 156.621 C 208.203 156.277,210.291 155.638,210.997 155.202 C 211.703 154.765,214.023 154.058,216.152 153.630 C 218.281 153.201,220.654 152.461,221.426 151.984 C 222.334 151.423,224.193 150.926,226.696 150.577 C 229.514 150.183,231.211 149.697,232.948 148.787 C 234.420 148.015,236.640 147.309,238.750 146.940 C 240.629 146.612,242.895 146.019,243.784 145.622 C 246.038 144.616,247.870 144.088,250.200 143.772 C 251.300 143.623,253.203 143.084,254.430 142.575 C 255.656 142.066,258.356 141.358,260.430 141.003 C 262.503 140.647,264.921 140.011,265.801 139.590 C 266.682 139.169,269.472 138.473,272.001 138.043 C 274.531 137.613,277.410 136.906,278.400 136.473 C 279.390 136.039,282.427 135.388,285.150 135.025 C 288.166 134.623,290.716 134.051,291.678 133.560 C 292.717 133.030,294.985 132.559,298.328 132.181 C 304.124 131.524,306.613 130.999,307.905 130.161 C 308.436 129.818,310.671 129.411,313.305 129.179 C 315.777 128.961,318.610 128.615,319.600 128.409 C 320.590 128.204,322.570 127.926,324.000 127.791 C 326.931 127.514,329.200 126.906,329.200 126.398 C 329.200 125.261,327.807 124.718,325.546 124.974 C 321.836 125.394,320.689 122.981,321.407 116.274 C 321.704 113.502,319.669 109.564,317.727 109.154 C 317.327 109.069,280.299 109.090,235.443 109.200 M332.476 122.843 C 329.246 123.618,330.704 124.192,336.209 124.313 C 341.741 124.434,346.578 123.787,344.879 123.154 C 343.423 122.611,334.386 122.384,332.476 122.843 M200.600 142.769 C 177.043 143.071,178.000 142.690,178.000 151.780 C 178.000 156.350,178.008 156.387,178.993 156.634 C 180.065 156.903,185.228 155.882,187.416 154.968 C 188.156 154.658,190.885 153.956,193.481 153.406 C 196.076 152.856,199.100 152.064,200.200 151.646 C 201.300 151.229,203.730 150.586,205.600 150.219 C 207.470 149.852,210.350 149.118,212.000 148.589 C 215.223 147.555,219.220 146.819,221.800 146.785 C 222.680 146.773,223.940 146.518,224.600 146.218 C 227.223 145.026,213.623 146.606,210.495 147.857 C 209.118 148.408,206.130 149.188,203.856 149.590 C 201.583 149.992,198.980 150.700,198.072 151.163 C 197.164 151.626,194.392 152.350,191.911 152.771 C 189.430 153.193,186.410 153.993,185.200 154.551 C 183.990 155.109,182.190 155.618,181.200 155.682 L 179.400 155.800 179.287 151.773 C 179.166 147.472,179.710 146.240,182.353 144.825 C 183.622 144.146,222.967 144.281,224.900 144.970 C 225.725 145.265,226.400 145.338,226.400 145.132 C 226.400 144.927,227.066 144.481,227.881 144.141 C 231.717 142.538,229.044 142.403,200.600 142.769 M96.600 204.992 C 95.720 205.757,94.553 206.791,94.006 207.291 C 93.459 207.791,92.477 208.535,91.823 208.944 C 90.037 210.063,81.884 218.356,80.660 220.300 C 80.072 221.235,79.440 222.000,79.256 222.000 C 79.072 222.000,78.587 222.742,78.178 223.650 C 77.769 224.557,76.927 225.937,76.308 226.716 C 75.689 227.495,75.073 228.598,74.939 229.166 C 74.805 229.735,74.099 231.460,73.369 233.000 C 70.621 238.800,70.619 248.197,73.363 254.360 C 74.108 256.032,74.846 257.850,75.004 258.400 C 75.163 258.950,75.611 259.760,76.002 260.200 C 76.392 260.640,77.189 261.953,77.772 263.119 C 78.355 264.284,79.102 265.341,79.431 265.467 C 79.760 265.594,80.278 266.178,80.582 266.766 C 81.546 268.630,90.679 277.321,92.800 278.392 C 93.350 278.670,94.250 279.302,94.800 279.797 C 95.350 280.292,96.340 281.011,97.000 281.395 C 97.918 281.929,97.777 281.703,96.400 280.436 C 95.410 279.525,94.060 278.497,93.400 278.150 C 92.740 277.804,91.660 277.007,91.000 276.379 C 90.340 275.752,88.967 274.464,87.949 273.519 C 84.895 270.682,84.659 270.447,83.096 268.690 C 82.269 267.761,81.011 266.370,80.302 265.600 C 79.592 264.830,78.695 263.507,78.307 262.659 C 77.920 261.812,77.165 260.599,76.631 259.964 C 76.097 259.329,75.372 257.821,75.021 256.612 C 74.670 255.404,74.036 253.827,73.614 253.108 C 71.518 249.542,71.473 237.362,73.545 234.400 C 74.308 233.308,75.004 231.602,75.367 229.931 C 75.495 229.343,76.053 228.323,76.608 227.664 C 77.162 227.005,77.978 225.647,78.421 224.647 C 78.863 223.646,79.549 222.596,79.945 222.314 C 80.340 222.031,81.006 221.260,81.425 220.600 C 81.843 219.940,84.439 217.199,87.193 214.509 C 94.273 207.592,94.500 207.385,95.606 206.827 C 96.153 206.551,96.997 205.854,97.482 205.278 C 97.968 204.702,98.508 204.374,98.682 204.549 C 99.150 205.016,99.309 278.941,98.846 280.618 C 98.376 282.322,99.381 282.629,100.010 280.974 C 100.461 279.788,100.519 207.937,100.072 205.400 C 99.699 203.290,98.696 203.172,96.600 204.992 " stroke="none" fill="#5d5d5d" fill-rule="evenodd"></path><path id="path4" d="M110.703 97.200 C 110.565 98.410,110.228 103.536,109.952 108.592 C 109.468 117.485,109.421 117.813,108.491 118.657 C 107.211 119.817,106.982 120.045,106.020 121.100 C 105.297 121.893,104.808 122.001,101.900 122.007 C 98.414 122.013,90.764 122.573,87.652 123.048 C 85.827 123.327,85.818 123.337,87.000 123.678 C 89.193 124.311,97.319 125.200,100.917 125.200 L 104.464 125.200 106.899 127.635 L 109.333 130.069 109.834 138.345 C 110.109 142.897,110.472 147.966,110.640 149.610 L 110.947 152.600 111.632 147.400 C 112.009 144.540,112.500 139.652,112.724 136.538 C 113.190 130.059,113.427 129.397,115.418 129.023 C 116.543 128.812,116.949 128.493,117.272 127.564 C 117.865 125.866,119.447 125.200,122.892 125.200 C 125.932 125.200,134.507 124.244,136.592 123.673 C 138.293 123.207,132.783 122.482,125.000 122.147 C 118.784 121.880,117.645 121.595,116.159 119.938 C 115.696 119.422,114.751 118.693,114.059 118.319 L 112.800 117.637 112.790 114.119 C 112.779 110.590,112.417 106.458,111.464 99.000 L 110.953 95.000 110.703 97.200 M111.779 108.977 C 112.113 112.463,112.281 115.735,112.152 116.248 C 111.973 116.963,112.230 117.464,113.259 118.400 C 113.997 119.071,115.050 120.044,115.600 120.561 C 117.236 122.101,117.960 122.286,123.400 122.560 C 129.615 122.873,134.081 123.252,133.884 123.449 C 133.549 123.784,122.886 124.840,121.706 124.655 C 119.814 124.358,118.153 124.968,116.185 126.682 C 115.226 127.517,113.992 128.560,113.441 129.000 C 112.495 129.756,112.417 130.128,112.007 135.800 C 111.150 147.667,110.928 148.016,110.388 138.355 C 109.877 129.216,109.819 128.921,108.338 128.021 C 107.668 127.613,106.798 126.751,106.405 126.104 L 105.689 124.927 100.345 124.650 C 97.405 124.497,93.650 124.146,92.000 123.870 L 89.000 123.367 91.600 123.096 C 93.030 122.946,96.540 122.718,99.400 122.588 C 106.011 122.288,106.261 122.229,107.003 120.794 C 107.343 120.137,107.882 119.600,108.201 119.600 C 109.430 119.600,109.917 117.869,110.173 112.600 C 110.461 106.665,110.833 102.300,111.034 102.501 C 111.110 102.577,111.445 105.491,111.779 108.977 M153.810 112.780 C 153.001 114.346,152.876 165.116,153.680 165.920 C 154.748 166.988,158.000 165.883,158.000 164.452 C 158.000 164.023,160.663 163.317,163.600 162.968 C 165.874 162.697,167.825 161.926,168.066 161.201 C 168.142 160.973,170.094 160.535,172.402 160.227 C 177.271 159.580,177.992 159.352,178.021 158.457 C 178.032 158.096,178.023 155.490,178.001 152.667 C 177.919 142.408,176.535 142.898,206.000 142.750 L 227.800 142.641 230.000 143.717 C 232.964 145.166,235.180 145.112,241.258 143.443 C 249.025 141.311,274.354 135.333,280.302 134.229 C 282.118 133.892,284.998 133.260,286.702 132.825 C 288.406 132.390,292.050 131.670,294.800 131.226 C 297.550 130.781,301.510 129.982,303.600 129.450 C 305.690 128.917,309.470 128.273,312.000 128.017 C 314.530 127.762,317.182 127.371,317.893 127.148 L 319.187 126.742 319.118 120.271 C 319.058 114.666,318.948 113.653,318.297 112.700 L 317.546 111.600 235.983 111.600 L 154.421 111.600 153.810 112.780 M317.843 113.100 C 318.643 114.153,318.608 123.525,317.800 124.679 C 316.767 126.153,313.331 126.945,304.200 127.814 C 302.660 127.961,300.004 128.521,298.298 129.058 C 296.592 129.596,292.631 130.374,289.495 130.788 C 286.358 131.201,282.804 131.905,281.596 132.353 C 280.388 132.800,276.942 133.523,273.937 133.959 C 270.932 134.395,266.972 135.208,265.137 135.767 C 263.302 136.326,259.820 137.064,257.400 137.408 C 254.980 137.752,251.718 138.473,250.152 139.010 C 248.586 139.547,245.398 140.254,243.068 140.581 C 240.738 140.908,238.150 141.462,237.316 141.811 C 235.924 142.393,235.482 142.390,231.928 141.767 C 228.489 141.164,227.228 141.141,220.643 141.565 C 216.566 141.828,206.968 142.026,199.315 142.006 C 177.885 141.949,177.227 142.264,177.196 152.600 C 177.187 155.686,177.128 155.832,175.400 157.037 C 173.883 158.095,172.120 158.661,168.668 159.200 C 167.166 159.434,165.079 160.074,164.032 160.622 C 162.984 161.169,161.007 161.815,159.638 162.056 C 158.094 162.328,156.719 162.856,156.017 163.447 C 154.521 164.705,154.533 164.712,154.033 162.380 C 153.407 159.463,153.436 114.798,154.064 113.419 L 154.528 112.400 235.920 112.400 C 312.967 112.400,317.340 112.437,317.843 113.100 M218.184 147.966 C 217.296 148.112,216.205 148.595,215.760 149.040 C 215.144 149.656,213.826 150.008,210.197 150.524 C 206.574 151.040,205.104 151.432,204.021 152.171 C 203.002 152.866,201.297 153.360,198.000 153.916 C 195.393 154.356,192.793 155.043,192.000 155.502 C 190.476 156.383,187.908 157.026,184.271 157.436 C 182.358 157.652,181.882 157.859,181.602 158.594 C 181.415 159.085,180.753 159.867,180.131 160.331 L 179.000 161.175 182.438 161.187 C 185.356 161.198,185.983 161.081,186.586 160.415 C 187.439 159.473,188.871 158.985,192.600 158.370 C 194.140 158.115,195.760 157.589,196.200 157.200 C 197.206 156.310,197.872 156.112,202.224 155.407 C 204.486 155.041,205.869 154.620,206.087 154.230 C 206.484 153.520,208.127 153.066,212.775 152.378 C 215.434 151.985,216.340 151.675,217.041 150.918 C 217.937 149.951,219.201 149.657,225.300 148.993 C 227.573 148.745,228.197 148.315,226.967 147.843 C 226.163 147.534,220.311 147.616,218.184 147.966 M174.277 164.895 C 172.904 165.180,172.113 165.621,171.513 166.433 C 170.877 167.292,170.223 167.632,168.836 167.822 C 165.627 168.261,164.026 168.805,163.600 169.599 C 163.373 170.024,162.515 170.548,161.693 170.762 C 160.872 170.977,159.320 171.374,158.245 171.644 C 156.925 171.975,156.226 172.380,156.093 172.888 C 155.979 173.323,155.408 173.738,154.740 173.872 C 154.104 173.999,153.477 174.275,153.348 174.485 C 152.717 175.506,153.235 226.575,153.883 227.292 C 154.491 227.964,157.951 228.000,222.024 228.000 L 289.524 228.000 291.262 229.444 C 294.406 232.055,294.202 230.035,294.181 258.400 C 294.162 285.241,294.140 285.561,292.249 286.973 C 290.761 288.084,182.791 288.304,180.620 287.200 C 178.424 286.083,177.990 284.709,177.843 278.412 C 177.665 270.737,178.869 271.428,165.409 271.275 L 154.446 271.151 153.774 272.450 C 153.186 273.588,153.123 274.902,153.271 282.983 L 153.440 292.216 154.891 295.208 C 155.689 296.854,156.462 298.977,156.610 299.926 C 156.798 301.133,157.289 302.062,158.240 303.013 C 158.988 303.761,159.600 304.638,159.600 304.962 C 159.600 305.286,160.323 306.386,161.206 307.407 C 162.089 308.427,163.084 309.788,163.416 310.431 C 163.749 311.074,164.200 311.600,164.419 311.600 C 164.638 311.600,165.579 312.296,166.509 313.146 C 167.439 313.996,169.057 315.066,170.105 315.525 C 171.152 315.984,172.112 316.626,172.237 316.952 C 172.873 318.610,172.332 318.595,233.600 318.714 C 295.474 318.835,297.724 318.779,299.539 317.084 C 300.123 316.539,301.474 315.714,302.543 315.250 C 303.611 314.787,304.961 313.954,305.543 313.400 C 309.421 309.707,311.156 307.671,312.190 305.600 C 312.575 304.830,313.380 303.660,313.979 303.000 C 314.620 302.294,315.257 300.937,315.526 299.703 C 315.778 298.550,316.462 296.885,317.045 296.004 C 320.296 291.091,320.094 225.113,316.814 220.400 C 316.431 219.850,315.732 218.115,315.260 216.543 C 314.785 214.957,314.128 213.581,313.784 213.449 C 313.443 213.318,312.885 212.545,312.545 211.730 C 312.019 210.472,308.399 206.635,303.000 201.614 C 302.321 200.983,300.931 200.293,299.800 200.025 C 298.700 199.765,297.095 199.067,296.234 198.476 L 294.669 197.400 238.196 197.200 C 177.851 196.986,181.638 197.115,179.559 195.200 C 177.963 193.729,177.882 193.011,177.739 179.053 C 177.606 166.188,177.436 164.262,176.451 164.447 C 176.313 164.473,175.335 164.675,174.277 164.895 M177.200 180.204 C 177.421 194.934,177.338 194.472,180.154 196.575 C 181.254 197.397,181.477 197.401,237.329 197.600 C 271.535 197.722,293.712 197.948,294.200 198.181 C 294.640 198.390,295.585 198.958,296.301 199.443 C 297.016 199.928,298.506 200.449,299.611 200.602 C 301.502 200.862,302.800 201.601,302.800 202.418 C 302.800 202.617,303.374 203.076,304.075 203.439 C 304.777 203.802,306.172 204.996,307.175 206.094 C 308.179 207.192,309.675 208.783,310.500 209.629 C 311.325 210.476,312.000 211.439,312.000 211.770 C 312.000 212.101,312.525 212.970,313.167 213.701 C 313.888 214.522,314.587 216.020,314.995 217.615 C 315.358 219.037,316.119 220.877,316.685 221.705 C 318.167 223.869,318.350 227.919,318.344 258.400 C 318.338 289.778,318.196 292.897,316.672 295.096 C 316.066 295.971,315.344 297.808,315.061 299.197 C 314.733 300.806,314.249 301.955,313.719 302.384 C 313.263 302.753,312.513 303.794,312.052 304.697 C 311.592 305.601,310.577 307.028,309.798 307.870 C 309.019 308.711,308.276 309.805,308.148 310.300 C 308.019 310.795,307.659 311.200,307.348 311.200 C 307.037 311.200,306.010 311.912,305.066 312.782 C 304.121 313.653,302.526 314.717,301.521 315.148 C 300.516 315.579,299.431 316.305,299.111 316.762 C 298.054 318.272,293.632 318.386,236.000 318.386 C 177.228 318.386,174.009 318.296,172.610 316.612 C 172.165 316.076,171.035 315.339,170.100 314.975 C 169.165 314.611,168.400 314.175,168.400 314.005 C 168.400 313.836,167.442 312.958,166.272 312.055 C 165.101 311.152,163.558 309.510,162.843 308.407 C 162.128 307.303,161.369 306.400,161.157 306.400 C 160.945 306.400,160.433 305.611,160.020 304.647 C 159.607 303.682,158.874 302.617,158.392 302.280 C 157.774 301.846,157.349 300.868,156.947 298.953 C 156.635 297.461,156.114 295.736,155.789 295.120 C 155.465 294.504,154.944 293.505,154.631 292.900 C 153.800 291.293,153.274 274.356,154.012 272.977 L 154.535 272.000 165.419 272.000 C 178.286 272.000,177.051 271.313,177.291 278.600 C 177.517 285.469,177.954 286.747,180.454 287.838 C 182.579 288.765,282.688 289.275,289.000 288.390 C 294.961 287.555,294.555 289.540,294.717 260.462 C 294.883 230.488,294.870 230.392,290.342 227.969 C 289.929 227.748,262.594 227.600,222.075 227.600 C 164.333 227.600,154.430 227.518,154.029 227.035 C 153.679 226.613,153.577 220.090,153.627 201.454 C 153.702 173.854,153.526 175.657,156.200 175.023 C 156.860 174.866,157.957 174.314,158.638 173.796 C 159.319 173.278,161.029 172.559,162.438 172.199 C 163.847 171.839,165.630 171.129,166.400 170.621 C 167.170 170.113,168.632 169.498,169.649 169.256 C 170.666 169.013,172.636 168.276,174.027 167.618 C 175.418 166.960,176.656 166.522,176.778 166.644 C 176.900 166.765,177.090 172.867,177.200 180.204 M143.273 170.336 C 142.887 170.589,143.077 170.818,143.986 171.194 C 145.293 171.736,147.596 171.370,147.730 170.600 C 147.818 170.098,143.986 169.871,143.273 170.336 M134.898 173.700 C 135.144 174.449,138.059 174.542,139.000 173.830 C 139.742 173.270,139.615 173.225,137.267 173.213 C 135.415 173.203,134.778 173.334,134.898 173.700 M143.377 175.767 C 142.462 176.436,142.592 176.623,144.200 176.953 C 145.637 177.247,146.610 176.725,146.271 175.840 C 145.967 175.048,144.415 175.008,143.377 175.767 M126.255 177.000 C 126.560 177.793,129.580 177.802,130.624 177.013 C 131.331 176.477,131.163 176.424,128.713 176.413 C 126.485 176.402,126.064 176.503,126.255 177.000 M137.700 178.812 C 136.283 179.382,136.647 180.000,138.400 180.000 C 139.501 180.000,140.000 179.826,140.000 179.443 C 140.000 179.011,139.046 178.283,138.667 178.425 C 138.630 178.439,138.195 178.613,137.700 178.812 M119.112 180.239 C 120.258 180.739,120.564 180.737,121.512 180.222 C 122.571 179.648,122.537 179.632,120.200 179.649 L 117.800 179.665 119.112 180.239 M131.102 181.862 C 129.306 182.608,129.494 183.202,131.524 183.194 C 133.587 183.185,134.254 182.711,133.401 181.858 C 133.039 181.496,132.711 181.209,132.671 181.221 C 132.632 181.232,131.926 181.521,131.102 181.862 M110.481 182.739 C 109.439 183.405,110.877 183.892,112.736 183.502 C 113.691 183.302,114.411 183.078,114.336 183.003 C 113.985 182.654,110.941 182.445,110.481 182.739 M103.411 185.965 C 102.686 186.248,102.703 186.288,103.626 186.465 C 104.850 186.699,105.685 186.461,105.379 185.966 C 105.114 185.537,104.506 185.537,103.411 185.965 M123.041 188.272 C 122.894 188.735,122.239 189.313,121.587 189.557 C 120.934 189.801,119.866 190.199,119.213 190.443 C 118.561 190.687,117.922 191.215,117.795 191.617 C 117.647 192.081,116.630 192.657,115.000 193.200 C 113.338 193.753,112.354 194.316,112.200 194.801 C 112.055 195.256,111.167 195.813,109.924 196.225 C 108.803 196.598,107.344 197.420,106.683 198.052 C 106.021 198.684,104.832 199.378,104.040 199.593 C 103.248 199.808,102.089 200.528,101.465 201.193 L 100.330 202.403 100.175 241.701 C 100.090 263.316,100.003 286.040,99.981 292.200 C 99.938 304.412,100.411 317.507,100.924 318.300 C 101.517 319.216,123.296 318.999,124.138 318.069 C 125.209 316.885,125.106 191.865,124.032 189.215 C 123.410 187.682,123.270 187.549,123.041 188.272 M94.911 189.300 C 95.110 189.861,96.774 189.786,97.371 189.189 C 97.623 188.937,97.226 188.800,96.247 188.800 C 95.208 188.800,94.789 188.957,94.911 189.300 M123.986 191.574 C 124.266 192.098,124.400 212.453,124.400 254.600 C 124.400 296.747,124.266 317.102,123.986 317.626 C 123.477 318.577,102.212 318.852,101.280 317.920 C 100.911 317.551,100.802 304.332,100.807 260.820 L 100.813 204.200 102.509 202.563 C 103.441 201.663,104.883 200.703,105.712 200.429 C 106.542 200.155,107.732 199.500,108.358 198.974 C 108.984 198.447,110.310 197.667,111.304 197.241 C 112.298 196.815,113.243 196.254,113.403 195.995 C 113.563 195.736,114.825 195.017,116.208 194.396 C 117.591 193.776,118.887 192.973,119.089 192.612 C 119.431 192.001,121.979 190.858,123.086 190.818 C 123.353 190.808,123.758 191.148,123.986 191.574 M88.466 192.638 C 89.045 193.217,89.210 193.218,90.252 192.654 L 91.400 192.032 89.614 192.016 C 87.980 192.001,87.883 192.054,88.466 192.638 M82.000 195.600 C 82.000 195.820,82.349 196.000,82.776 196.000 C 83.203 196.000,83.664 195.820,83.800 195.600 C 83.940 195.373,83.604 195.200,83.024 195.200 C 82.461 195.200,82.000 195.380,82.000 195.600 M76.320 198.880 C 76.693 199.253,76.907 199.253,77.280 198.880 C 77.653 198.507,77.547 198.400,76.800 198.400 C 76.053 198.400,75.947 198.507,76.320 198.880 M54.400 211.200 C 54.400 211.701,54.824 211.701,55.600 211.200 C 56.085 210.886,56.028 210.811,55.300 210.806 C 54.805 210.803,54.400 210.980,54.400 211.200 " stroke="none" fill="#5c8ee1" fill-rule="evenodd"></path></g></svg>